<svg xmlns:xlink="http://www.w3.org/1999/xlink" xmlns="http://www.w3.org/2000/svg" width="1578" viewBox="0 0 1578 1500" fill="none" class="logo footer" height="1500" ><path d="M1561.98 910.58C1484.45 495.47 1252.24 -21.44 762.68 0.689978C732.76 2.03998 702.92 5.69998 673.52 11.45C479.9 49.35 383.59 147.66 267.29 299.46C165.19 432.71 102.46 559.02 50.72 719.23C11.82 839.76 -19.67 973.74 14.78 1099.19C40.17 1191.53 100.85 1298.08 177.99 1354.79C452.23 1556.34 708.01 1493.92 775.22 1479.72C796.23 1474.12 848.11 1462.08 846.66 1442C845.05 1419.65 834.67 1429.01 727.79 1351.18C495.77 1182.23 474.89 841.11 601.08 589.34C671.95 447.86 798.4 320.06 995.63 324.94C1131.27 328.29 1241.13 429.13 1301.67 540.38C1366.1 658.78 1403.98 798.38 1394.58 937.72C1384.02 1094.35 1301.24 1231.96 1186.34 1265.08C1080.66 1295.54 984.83 1237.4 953.77 1214.92C880.03 1163.52 824.71 1088.03 803.41 999.78C784.68 927.69 789.86 850.16 806.68 777.24C815.09 738.52 827.46 699.01 846.8 664.99C868.01 627.83 898.11 594.86 934.4 571.95C986.8 542.5 1057.28 555.31 1103.71 592.73C1137.03 619.43 1162.17 657.46 1177.54 699.93C1203.02 772.24 1214.17 892.28 1146.09 943.64C1113.16 966.51 1065.77 968.69 1029.31 954.62C989.98 939.51 962.49 901.3 953.74 860.49C944.85 827.34 896.63 837.62 902.12 871.55C907.65 900.3 919.15 928.09 936.79 951.83C981.66 1014.73 1066.68 1037.03 1139.03 1015.47C1248.06 982.84 1275.46 857.44 1263.22 757.95C1252.29 645.79 1187.34 527.87 1074.83 489.15C900.73 423.31 754.84 588.94 719.44 746.1C695.27 835.7 685.68 930.31 706.68 1022.52C737.78 1166.79 824.91 1289.48 958.27 1348.08C1087.92 1405.04 1236.96 1438.69 1414.94 1356.23C1474.92 1328.44 1524.14 1275.56 1549.27 1215.14C1588.82 1119.96 1580.94 1011.9 1561.99 910.58H1561.98ZM734.89 284.21C688.89 334.13 633.53 361.96 604.69 326.42C575.77 291.44 595.02 208.51 651.47 162.29C707.66 115.64 769.08 119.99 787.5 151.27C806.19 183.11 780.92 233.73 734.88 284.21H734.89ZM1171.08 282.42C1147.25 311.78 1101.52 288.78 1063.58 247.57C1025.51 205.84 1004.65 164.07 1020.11 137.76C1035.31 111.89 1086.06 108.31 1132.45 146.86C1179.1 185.02 1195 253.49 1171.09 282.41L1171.08 282.42Z" fill="#F2F1F0"></path></svg>