<svg width="101" height="30" viewBox="0 0 101 30" fill="none" xmlns="http://www.w3.org/2000/svg">
<g clip-path="url(#clip0_118_4022)">
<path d="M9.16452 9.52344H5.68433V12.7057H9.10128C10.5636 12.7057 11.1067 12.0022 11.1067 11.0927C11.1067 10.1832 10.5308 9.52344 9.16452 9.52344Z" fill="white"/>
<path d="M10.8222 6.54148C10.8222 5.82013 10.4111 5.07861 8.924 5.07861H5.68433V8.04803H8.924C10.4868 8.04803 10.8222 7.26396 10.8222 6.54148Z" fill="white"/>
<path d="M21.8263 5.10449H21.7947C21.6299 5.70711 21.4277 6.1462 21.1116 6.82387L19.7769 10.1125H23.8329L22.4982 6.82387C22.182 6.1462 21.9788 5.70711 21.8275 5.10449H21.8263Z" fill="white"/>
<path d="M36.3172 5.09863H33.3113V8.55082H36.3172C37.88 8.55082 38.4175 7.7533 38.4175 6.80009C38.4175 5.84687 37.8981 5.09863 36.3172 5.09863Z" fill="white"/>
<path d="M64.8939 4.88477C62.5847 4.88477 61.1416 6.435 61.1416 8.89589C61.1416 11.3568 62.5847 12.907 64.8939 12.907C67.2031 12.907 68.6462 11.3501 68.6462 8.89589C68.6462 6.44172 67.2031 4.88477 64.8939 4.88477Z" fill="white"/>
<path d="M79.2709 5.11084H76.5947V12.6806H79.3025C81.6434 12.6806 83.0108 11.0799 83.0108 8.82066C83.0108 6.56139 81.5937 5.11084 79.2709 5.11084Z" fill="white"/>
<path d="M88.1091 0H0V17.7751H101V0H88.1091ZM9.49994 14.2501H3.57052V3.5418H9.31588C11.9921 3.5418 12.9666 4.91618 12.9666 6.31632C12.9666 7.40171 12.3275 8.36837 11.0244 8.68312C12.4799 8.90938 13.2523 9.857 13.2523 11.2627C13.2523 12.813 12.2337 14.2501 9.49994 14.2501ZM25.5097 14.2501L24.4404 11.6391H19.1625L18.0999 14.2501H15.898L20.6124 3.5418H22.9984L27.7128 14.2501H25.5108H25.5097ZM38.6141 14.2501L36.0327 10.0575H33.3113V14.2501H31.1975V3.5418H36.7159C39.6958 3.5418 40.6206 5.1234 40.6206 6.78677C40.6206 8.01105 39.9691 9.33503 38.203 9.78755L40.9876 14.2501H38.6152H38.6141ZM49.9794 12.8634C51.6947 12.8634 52.8521 11.9718 53.2451 10.4339L55.3589 10.8416C54.7198 13.1008 52.8973 14.5514 49.9173 14.5514C46.165 14.5514 44.0636 12.2104 44.0636 8.89594C44.0636 5.58153 46.3287 3.24049 49.993 3.24049C53.0046 3.24049 54.8903 4.74704 55.3589 7.13176L53.1818 7.44539C52.8781 5.86379 51.7387 4.91618 49.9298 4.91618C47.633 4.91618 46.2531 6.46641 46.2531 8.88362C46.2531 11.3008 47.633 12.8634 49.9806 12.8634H49.9794ZM64.8939 14.5514C61.2872 14.5514 58.9329 12.3291 58.9329 8.89594C58.9329 5.46279 61.2872 3.24049 64.8939 3.24049C68.5005 3.24049 70.8549 5.42471 70.8549 8.89594C70.8549 12.3672 68.5005 14.5514 64.8939 14.5514ZM79.4357 14.2434H74.4808V3.5418H79.4549C82.9351 3.5418 85.2138 5.53112 85.2138 8.80185C85.2138 12.0726 82.8854 14.2445 79.4368 14.2445L79.4357 14.2434ZM97.4069 12.6494V14.2501H88.8193V3.5418H97.2985V5.14244H90.9321V8.00433H97.0444V9.55457H90.9321V12.6427H97.4058V12.6494H97.4069Z" fill="white"/>
<path d="M6.73905 27.6981H2.5757L1.73671 29.758H0L3.71958 21.3101H5.60195L9.32153 29.758H7.58482L6.74131 27.6981H6.73905ZM6.26027 26.4939L5.20673 23.8986C4.95718 23.3643 4.79683 23.0171 4.67714 22.5422H4.6523C4.52244 23.0171 4.36322 23.3643 4.11367 23.8986L3.06013 26.4939H6.26027Z" fill="white"/>
<path d="M15.7998 26.4503H13.6532V29.758H11.9854V21.3101H16.3384C18.6894 21.3101 19.4189 22.5579 19.4189 23.8706C19.4189 24.8362 18.9051 25.8812 17.5116 26.2374L19.7079 29.758H17.8357L15.7987 26.4503H15.7998ZM13.6532 25.2618H16.0245C17.2576 25.2618 17.6822 24.6334 17.6822 23.8807C17.6822 23.128 17.2723 22.5388 16.0245 22.5388H13.6532V25.2629V25.2618Z" fill="white"/>
<path d="M22.1255 25.5342C22.1255 22.8795 23.913 21.0728 26.8026 21.0728C29.1785 21.0728 30.6667 22.2612 31.036 24.143L29.3241 24.3905C29.0847 23.1427 28.1859 22.3945 26.7586 22.3945C24.9462 22.3945 23.8577 23.6177 23.8577 25.5241C23.8577 27.4305 24.9462 28.6638 26.7981 28.6638C28.1509 28.6638 29.0644 27.9603 29.3738 26.7472L31.0416 27.0687C30.5369 28.8519 29.0994 29.9956 26.7484 29.9956C23.7832 29.9956 22.1255 28.1485 22.1255 25.5342Z" fill="white"/>
<path d="M60.1796 22.7158H57.0991V29.8419H55.4313V22.7158H52.3508V21.394H60.1829V22.7158H60.1784H60.1796Z" fill="white"/>
<path d="M91.2911 22.6318H88.2107V29.758H86.5429V22.6318H83.4624V21.3101H91.29V22.6318H91.2911Z" fill="white"/>
<path d="M92.8878 27.5445L94.2801 26.9251C94.69 27.9847 95.6228 28.733 97.2307 28.733C98.4887 28.733 99.3175 28.3611 99.3175 27.4852C99.3175 26.7022 98.8127 26.4155 97.7445 26.2474L95.922 25.9999C94.314 25.7524 93.3813 25.0243 93.3813 23.5737C93.3813 22.0291 94.7488 21.0781 97.041 21.0781C98.9731 21.0781 100.4 21.7569 100.959 23.1974L99.6664 23.8863C99.2825 22.8759 98.3938 22.3069 96.9654 22.3069C95.7526 22.3069 95.039 22.7325 95.039 23.4606C95.039 24.1887 95.4489 24.4855 96.5261 24.649L98.2786 24.9112C100.041 25.1733 100.999 25.8274 100.999 27.3373C100.999 28.8472 99.6811 30.0009 97.1754 30.0009C94.8436 29.9965 93.3813 29.0399 92.8867 27.5445H92.8878Z" fill="white"/>
<path d="M69.85 28.4946V29.757H63.0759V21.3091H69.7653V22.5714H64.7437V24.8296H69.5666V26.0528H64.7437V28.489H69.8511V28.4935L69.85 28.4946Z" fill="white"/>
<path d="M41.874 29.7525H40.2062V26.0886H35.4591V29.7525H33.7969V21.3091H35.4647V24.8195H40.2118V21.3091H41.8797V29.7525H41.8752H41.874Z" fill="white"/>
<path d="M72.4302 25.5342C72.4302 22.8795 74.2177 21.0728 77.1073 21.0728C79.4831 21.0728 80.9714 22.2612 81.3407 24.143L79.6288 24.3905C79.3894 23.1427 78.4906 22.3945 77.0633 22.3945C75.2509 22.3945 74.1624 23.6177 74.1624 25.5241C74.1624 27.4305 75.2509 28.6638 77.1028 28.6638C78.4556 28.6638 79.3691 27.9603 79.6785 26.7472L81.3463 27.0687C80.8416 28.8519 79.4041 29.9956 77.0531 29.9956C74.0878 29.9956 72.4302 28.1485 72.4302 25.5342Z" fill="white"/>
<path d="M49.153 22.5724V21.3101H47.9797H46.3119H45.1387V22.5724H46.3119V28.4945H45.1387V29.7524H49.153V28.4945H47.9797V22.5724H49.153Z" fill="white"/>
</g>
<defs>
<clipPath id="clip0_118_4022">
<rect width="101" height="30" fill="white"/>
</clipPath>
</defs>
</svg>
